<svg xmlns="http://www.w3.org/2000/svg" fill-rule="evenodd" stroke-linejoin="round" stroke-miterlimit="2" clip-rule="evenodd" viewBox="0 0 64 64" id="hacker"><path fill="#f0f0ff" fill-rule="nonzero" d="M32,1c-2.612,0 -5.171,0.745 -7.375,2.147l-9.514,6.055c-4.915,3.128 -6.127,9.777 -2.632,14.437l8.521,11.361l22,0l8.521,-11.361c3.495,-4.66 2.283,-11.309 -2.632,-14.437l-9.514,-6.055c-2.204,-1.402 -4.763,-2.147 -7.375,-2.147Z"></path><path fill="#f0f0ff" d="M43,17c0,-6.071 -4.929,-11 -11,-11c-6.071,0 -11,4.929 -11,11c0,6.071 4.929,11 11,11c6.071,0 11,-4.929 11,-11Z"></path><path fill="#00bce5" fill-rule="nonzero" d="M53.34 19.48c-14.23-11.3-28.45-11.3-42.68 0-.74-3.87.88-8.01 4.45-10.28l9.52-6.05c2.2-1.41 4.76-2.15 7.37-2.15 2.61 0 5.17.74 7.37 2.15l9.52 6.05c3.57 2.27 5.19 6.41 4.45 10.28zM52.493 35c-3.201-4.097-11.166-7-20.493-7-9.327 0-17.292 2.903-20.493 7l40.986 0z"></path><path fill="#f0f0ff" fill-rule="nonzero" d="M5,63l54,0c2.209,0 4,-1.791 4,-4l0,-20c0,-2.209 -1.791,-4 -4,-4l-54,0c-2.209,0 -4,1.791 -4,4l0,20c0,2.209 1.791,4 4,4Z"></path><path fill="#f0f0ff" fill-rule="nonzero" d="M1,41l62,0l0,-2c0,-2.209 -1.791,-4 -4,-4l-54,0c-2.209,0 -4,1.791 -4,4l0,2Z"></path><path fill="#00bce5" fill-rule="nonzero" d="M7,38c0,0.552 -0.448,1 -1,1c-0.552,0 -1,-0.448 -1,-1c0,-0.552 0.448,-1 1,-1c0.552,0 1,0.448 1,1"></path><path fill="#1b4a99" fill-rule="nonzero" d="M11,38c0,0.552 -0.448,1 -1,1c-0.552,0 -1,-0.448 -1,-1c0,-0.552 0.448,-1 1,-1c0.552,0 1,0.448 1,1"></path><path fill="#00bce5" fill-rule="nonzero" d="M15 38c0 .552-.448 1-1 1-.552 0-1-.448-1-1 0-.552.448-1 1-1 .552 0 1 .448 1 1M45 59l-26 0c-3.866 0-7-3.134-7-7 0-3.866 3.134-7 7-7l26 0c3.866 0 7 3.134 7 7 0 3.866-3.134 7-7 7z"></path><path fill="#f0f0ff" d="M43,52l-0.707,0.707c-0.39,0.39 -0.39,1.024 0,1.414c0.391,0.39 1.024,0.39 1.415,-0l0.706,-0.707l0.707,0.707c0.39,0.39 1.024,0.39 1.414,-0c0.39,-0.39 0.39,-1.024 0,-1.414l-0.707,-0.707l0.708,-0.707c0.39,-0.39 0.39,-1.024 -0,-1.414c-0.391,-0.391 -1.024,-0.391 -1.415,-0l-0.707,0.707l-0.707,-0.707c-0.39,-0.391 -1.024,-0.391 -1.414,-0c-0.39,0.39 -0.39,1.024 -0,1.414l0.707,0.707Zm-23.414,-1.414l-0.707,-0.707c-0.391,-0.391 -1.024,-0.391 -1.415,-0c-0.39,0.39 -0.39,1.024 0,1.414l0.708,0.707l-0.707,0.707c-0.39,0.39 -0.39,1.024 -0,1.414c0.39,0.39 1.024,0.39 1.414,-0l0.707,-0.707l0.706,0.707c0.391,0.39 1.024,0.39 1.415,-0c0.39,-0.39 0.39,-1.024 -0,-1.414l-0.707,-0.707l0.707,-0.707c0.39,-0.39 0.39,-1.024 0,-1.414c-0.39,-0.391 -1.024,-0.391 -1.414,-0l-0.707,0.707Zm8.343,-0l-0.707,-0.707c-0.39,-0.391 -1.024,-0.391 -1.414,-0c-0.391,0.39 -0.391,1.024 -0,1.414l0.707,0.707l-0.707,0.707c-0.39,0.39 -0.39,1.024 -0,1.414c0.39,0.39 1.024,0.39 1.414,-0l0.707,-0.707l0.707,0.707c0.39,0.39 1.024,0.39 1.414,-0c0.39,-0.39 0.39,-1.024 -0,-1.414l-0.707,-0.707l0.707,-0.707c0.39,-0.39 0.39,-1.024 0,-1.414c-0.39,-0.391 -1.024,-0.391 -1.414,-0l-0.707,0.707Zm7.071,1.414l-0.707,0.707c-0.39,0.39 -0.39,1.024 0,1.414c0.391,0.39 1.024,0.39 1.415,-0l0.706,-0.707l0.707,0.707c0.39,0.39 1.024,0.39 1.414,-0c0.39,-0.39 0.39,-1.024 0,-1.414l-0.707,-0.707l0.708,-0.707c0.39,-0.39 0.39,-1.024 -0,-1.414c-0.391,-0.391 -1.024,-0.391 -1.415,-0l-0.707,0.707l-0.707,-0.707c-0.39,-0.391 -1.024,-0.391 -1.414,-0c-0.39,0.39 -0.39,1.024 -0,1.414l0.707,0.707Z"></path><g><path fill="#1b4a99" d="M11.057,33.912c1.219,-1.408 2.981,-2.682 5.156,-3.744l-4.513,-6.017c-3.844,-5.126 -2.511,-12.439 2.896,-15.88l9.514,-6.055c2.364,-1.504 5.109,-2.304 7.911,-2.304c2.803,0 5.548,0.8 7.912,2.304l9.514,6.055c5.407,3.441 6.74,10.754 2.895,15.88l-4.512,6.017c2.175,1.062 3.938,2.336 5.156,3.744l6.035,0c2.762,0 5,2.239 5,5c0,0 0,20 0,20c0,2.762 -2.238,5 -5,5l-54,0c-2.761,0 -5,-2.238 -5,-5c0,0 0,-20 0,-20c0,-2.761 2.239,-5 5,-5l6.036,0Zm-9.036,8l60,0l0,17c0,1.657 -1.343,3 -3,3c0,0 -54,0 -54,0c-1.656,0 -3,-1.343 -3,-3l0,-17Zm43,18c4.419,0 8,-3.581 8,-8c0,-4.418 -3.581,-8 -8,-8l-26,0c-4.418,0 -8,3.582 -8,8c0,4.419 3.582,8 8,8l26,0Zm0.001,-2l-26.001,0c-3.313,0 -6,-2.686 -6,-6c0,-3.313 2.687,-6 6,-6c0,0 26,0 26,0c3.314,0 6,2.687 6,6c0,3.314 -2.686,6 -5.999,6Zm16.999,-18l-60,0l0,-1c0,-1.656 1.344,-3 3,-3l54,0c1.657,0 3,1.344 3,3l0,1Zm-11.897,-6l-36.205,0c3.706,-3.033 10.438,-5 18.103,-5c7.664,0 14.396,1.967 18.102,5l0,0Zm-29.878,-19.319c-2.82,1.28 -5.641,3.016 -8.463,5.206c0.284,1.106 0.786,2.178 1.517,3.152l4.794,6.392c2.334,-0.919 5.025,-1.617 7.952,-2.024c-3.599,-2.073 -6.025,-5.959 -6.025,-10.407c0,-0.793 0.078,-1.568 0.225,-2.319Zm23.551,0c0.147,0.751 0.224,1.526 0.224,2.319c0,4.448 -2.425,8.334 -6.024,10.407c2.927,0.407 5.619,1.105 7.952,2.023l4.794,-6.391c0.731,-0.974 1.233,-2.046 1.517,-3.152c-2.822,-2.19 -5.642,-3.926 -8.463,-5.206Zm-2.024,4.542c-6.498,2.367 -13.005,2.367 -19.503,-0c1.012,4.451 4.996,7.777 9.751,7.777c4.756,0 8.74,-3.326 9.752,-7.777Zm10.77,-1.631c-0.019,-2.945 -1.477,-5.832 -4.169,-7.546l-9.514,-6.055c-2.044,-1.3 -4.417,-1.991 -6.839,-1.991c-2.421,0 -4.794,0.691 -6.838,1.991c0,0 -9.514,6.055 -9.514,6.055c-2.692,1.714 -4.15,4.601 -4.169,7.546c6.835,-5.068 13.675,-7.583 20.506,-7.587c6.842,-0.003 13.692,2.511 20.537,7.587Zm-11.069,-3.861c-3.155,-1.151 -6.31,-1.727 -9.467,-1.726c-3.147,0.002 -6.293,0.579 -9.438,1.726c-0.111,0.321 -0.207,0.65 -0.285,0.986c6.492,2.345 12.984,2.345 19.475,0c-0.078,-0.336 -0.174,-0.665 -0.285,-0.986Z"></path></g></svg>